<?xml version="1.0" standalone="no"?>
<!DOCTYPE svg PUBLIC "-//W3C//DTD SVG 20010904//EN"
 "http://www.w3.org/TR/2001/REC-SVG-20010904/DTD/svg10.dtd">
<svg version="1.0" xmlns="http://www.w3.org/2000/svg"
 width="470.000000pt" height="470.000000pt" viewBox="0 0 470.000000 470.000000"
 preserveAspectRatio="xMidYMid meet">
<metadata>
Created by potrace 1.14, written by Peter Selinger 2001-2017
</metadata>
<g transform="translate(0.000000,470.000000) scale(0.100000,-0.100000)"
fill="#000000" stroke="none">
<path d="M1785 3758 c-218 -18 -339 -117 -340 -278 0 -36 3 -77 8 -93 6 -22 4
-29 -10 -33 -140 -48 -291 -162 -333 -252 -53 -113 -12 -257 103 -362 32 -29
67 -40 67 -20 0 6 -4 10 -10 10 -5 0 -28 25 -51 56 -121 164 -125 299 -12 405
56 53 89 73 188 116 l90 38 150 0 c234 -1 446 -55 684 -176 201 -102 344 -214
634 -497 310 -302 417 -396 417 -364 0 16 -61 95 -148 192 -311 345 -614 597
-860 716 -107 52 -354 136 -462 158 -117 23 -227 29 -310 17 -122 -18 -115
-19 -118 12 -5 43 25 132 61 178 42 54 116 96 208 115 143 31 410 6 594 -55
33 -11 128 -40 210 -66 83 -25 186 -60 230 -77 166 -64 213 -68 97 -8 l-57 29
76 1 c162 1 356 -49 528 -137 122 -62 176 -102 292 -214 87 -86 123 -144 164
-264 25 -74 26 -279 1 -365 -17 -60 -87 -214 -106 -233 -4 -5 -27 2 -51 14
-37 20 -59 23 -144 24 -91 0 -105 -3 -153 -28 -61 -32 -142 -103 -142 -123 0
-20 3 -19 75 31 36 24 91 52 123 61 100 30 229 18 285 -26 35 -27 61 -108 47
-144 -5 -15 -10 -38 -10 -51 0 -62 -34 -127 -113 -215 -85 -95 -143 -133 -226
-146 l-42 -7 23 -24 22 -24 -19 -37 c-11 -20 -46 -63 -78 -97 -33 -33 -50 -46
-39 -30 85 128 15 313 -147 388 -39 18 -64 22 -166 22 -151 -1 -197 -15 -522
-161 -39 -17 -43 -17 -43 0 0 39 -114 122 -192 140 -43 10 -33 -1 27 -29 89
-43 115 -97 80 -165 -15 -29 -14 -30 5 -30 11 0 28 4 38 9 9 5 40 18 67 29 28
11 118 49 200 85 83 35 175 70 205 77 85 21 224 16 290 -9 94 -36 170 -114
155 -161 -4 -12 -2 -20 6 -20 16 0 5 -80 -17 -123 -38 -72 -219 -235 -228
-205 -2 7 -11 35 -20 62 -9 27 -13 53 -10 57 3 5 27 20 53 34 38 19 196 121
220 142 3 2 0 8 -7 15 -8 8 -32 -3 -94 -44 -71 -47 -179 -108 -191 -108 -2 0
-19 50 -37 111 -30 99 -49 133 -66 116 -5 -5 21 -150 41 -229 6 -24 2 -27
-102 -71 -125 -52 -182 -71 -190 -64 -2 3 -22 54 -44 113 -21 60 -44 113 -49
118 -19 19 -11 -49 16 -140 14 -49 27 -95 28 -103 2 -21 -270 -110 -285 -93
-4 4 -23 50 -42 102 -23 62 -41 96 -52 98 -14 3 -16 -1 -10 -30 4 -18 20 -67
36 -107 16 -41 27 -76 26 -77 -1 -1 -61 -11 -133 -21 l-132 -19 -15 35 c-48
108 -57 136 -53 146 2 7 27 15 55 19 78 10 178 47 391 141 107 48 245 107 305
132 122 50 293 93 371 93 63 0 140 -22 188 -55 20 -13 36 -20 36 -14 0 21 -62
68 -112 85 -134 44 -324 3 -658 -144 -476 -208 -591 -241 -793 -224 l-87 7
207 73 c115 41 263 90 331 110 67 19 122 40 122 45 0 6 -27 8 -67 5 -51 -4
-162 -37 -443 -131 -231 -78 -463 -148 -605 -184 -207 -52 -241 -57 -337 -58
-124 0 -138 7 -118 55 33 80 139 220 255 335 62 62 363 314 550 461 76 60 158
127 181 149 63 62 104 156 89 206 -9 27 -16 18 -35 -44 l-16 -52 -32 61 c-35
70 -117 149 -168 163 -38 11 -128 1 -161 -17 -29 -16 -45 -46 -54 -102 -8 -47
6 -136 22 -146 6 -3 64 2 130 12 94 14 119 21 114 32 -11 30 8 31 36 2 38 -37
54 -39 35 -2 -16 31 -53 66 -78 75 -19 7 -54 -34 -44 -51 3 -5 -26 -13 -64
-19 -38 -6 -81 -17 -97 -25 l-28 -14 3 80 c3 65 8 85 24 103 59 63 171 47 261
-36 43 -39 90 -137 78 -160 -13 -23 -79 -78 -188 -155 -45 -32 -90 -66 -100
-75 -10 -9 -50 -41 -88 -72 -69 -55 -188 -158 -333 -287 -121 -109 -280 -308
-318 -398 -19 -46 -6 -70 52 -96 60 -26 162 -25 285 2 157 35 450 109 517 131
50 17 66 18 77 9 10 -8 66 -14 150 -18 121 -4 135 -7 135 -23 0 -10 13 -51 29
-92 l28 -75 -66 -3 c-36 -2 -94 -2 -127 -1 l-62 4 -46 99 c-25 54 -51 99 -57
99 -15 0 -2 -52 31 -127 16 -34 26 -64 22 -67 -5 -6 81 -96 92 -96 4 0 2 9 -4
19 -13 25 -13 34 1 26 6 -4 63 -7 127 -6 l117 0 24 -37 c25 -38 42 -31 21 8
-6 12 -10 24 -7 26 5 6 221 44 246 44 9 0 25 -15 35 -34 10 -19 25 -37 32 -40
18 -7 17 -4 -1 41 -9 20 -12 40 -8 43 5 4 31 13 58 20 42 12 151 51 205 74 11
4 23 -7 42 -39 42 -70 65 -55 33 22 -8 20 -14 37 -13 38 10 8 273 115 282 115
7 0 18 -17 25 -37 8 -20 24 -47 36 -59 l22 -22 -108 -52 c-149 -71 -395 -155
-531 -182 -155 -30 -500 -33 -593 -4 -62 19 -126 52 -183 94 -18 14 -35 22
-38 19 -8 -7 55 -64 99 -89 20 -12 37 -27 37 -33 0 -21 106 -114 152 -134 81
-34 126 -42 236 -42 257 0 549 92 766 242 137 94 139 96 130 111 -4 7 -4 10 0
6 5 -4 13 -2 20 3 6 5 70 44 141 85 100 57 146 91 198 145 70 72 113 146 103
177 -5 14 2 21 27 30 39 14 180 116 219 158 67 72 115 225 98 313 -5 28 -16
64 -24 80 -13 24 -13 30 -2 34 25 10 86 135 113 234 22 79 27 120 27 213 0
104 -2 123 -30 200 -34 94 -67 151 -123 214 -20 22 -54 65 -76 93 -36 48 -123
126 -186 167 -46 29 -266 114 -356 137 -70 17 -122 22 -255 25 -159 2 -171 4
-245 32 -118 46 -397 129 -509 152 -121 26 -282 37 -389 28z m1165 -2562 c0
-8 -156 -95 -240 -135 -127 -59 -249 -97 -398 -121 -243 -41 -412 -15 -511 78
-42 40 -44 42 -14 27 93 -44 264 -62 453 -46 213 19 347 54 598 156 123 50
112 46 112 41z"/>
<path d="M1723 2966 c-124 -39 -380 -223 -351 -252 3 -3 32 18 64 46 67 58
166 121 246 153 49 20 70 22 258 22 225 -1 317 -16 431 -70 30 -14 45 -23 34
-19 -138 41 -284 55 -305 29 -15 -18 -15 -18 95 -40 92 -18 224 -57 290 -85
41 -18 46 -18 52 -3 3 8 1 24 -6 35 -10 16 -4 15 36 -9 147 -85 390 -267 529
-395 87 -79 190 -155 200 -145 13 13 -12 47 -109 148 -136 141 -249 237 -393
335 -165 113 -306 181 -454 219 -161 42 -524 60 -617 31z"/>
<path d="M1630 2868 c-88 -43 -225 -178 -182 -178 4 0 40 25 81 55 40 31 109
73 152 93 44 20 77 42 76 47 -8 22 -64 15 -127 -17z"/>
<path d="M2190 2631 c-24 -7 -42 -41 -21 -41 5 0 -11 -38 -35 -85 -69 -129
-51 -139 29 -17 l68 102 60 0 c137 0 321 -102 379 -210 14 -25 16 -22 -37 -43
l-41 -16 1 46 c0 36 -5 50 -22 65 -44 35 -105 19 -124 -33 -4 -13 -18 -15 -79
-11 -100 6 -240 -29 -215 -55 4 -3 33 2 65 12 84 27 171 24 259 -11 l73 -28
-22 -23 c-12 -13 -19 -26 -15 -29 3 -3 47 13 99 37 51 23 126 52 167 64 57 17
70 24 54 29 -19 6 -86 -4 -125 -19 -10 -4 -19 4 -29 27 -31 77 -176 196 -282
232 -48 16 -160 20 -207 7z m373 -249 c18 -16 24 -72 8 -72 -5 0 -11 5 -13 11
-2 6 -27 21 -56 33 -41 17 -50 25 -40 33 29 24 69 22 101 -5z"/>
<path d="M1340 2284 c-26 -79 4 -224 46 -224 13 0 15 9 10 58 -4 31 -8 85 -11
120 -3 35 -7 68 -11 73 -11 18 -23 8 -34 -27z"/>
<path d="M3565 2183 c-94 -21 -195 -77 -195 -109 0 -12 7 -14 29 -9 19 4 41 0
60 -10 27 -14 31 -21 31 -58 0 -23 -7 -55 -15 -71 -19 -37 -13 -56 15 -49 69
18 65 136 -6 192 l-26 21 53 25 c90 42 91 41 87 -71 -3 -109 9 -131 36 -64 22
56 21 112 -4 135 -11 10 -20 23 -20 28 0 17 103 -1 132 -23 35 -26 39 -4 6 27
-37 34 -120 50 -183 36z"/>
</g>
</svg>
